<?xml version="1.0" encoding="UTF-8"?>
<svg width="900" height="520" viewBox="0 0 900 520" xmlns="http://www.w3.org/2000/svg" font-family="'Segoe UI', Arial, sans-serif">

  <!-- Background -->
  <rect width="900" height="520" fill="#f8f9fa" rx="12"/>

  <!-- Title -->
  <text x="450" y="38" text-anchor="middle" font-size="18" font-weight="bold" fill="#1a1a2e">Sistema de Triage Automático de Tickets — elDiario.es</text>
  <text x="450" y="58" text-anchor="middle" font-size="12" fill="#666">Arquitectura general de la solución</text>

  <!-- ── ZENDESK ── -->
  <rect x="30" y="90" width="160" height="100" rx="10" fill="#17a589" opacity="0.15" stroke="#17a589" stroke-width="2"/>
  <text x="110" y="118" text-anchor="middle" font-size="13" font-weight="bold" fill="#17a589">ZENDESK</text>
  <text x="110" y="138" text-anchor="middle" font-size="11" fill="#333">912 tickets / 30 días</text>
  <text x="110" y="155" text-anchor="middle" font-size="11" fill="#333">Canal: correo electrónico</text>
  <text x="110" y="172" text-anchor="middle" font-size="11" fill="#333">Texto libre, sin estructura</text>

  <!-- Arrow Zendesk → Funnel -->
  <line x1="190" y1="140" x2="240" y2="140" stroke="#555" stroke-width="2" marker-end="url(#arrow)"/>
  <text x="215" y="133" text-anchor="middle" font-size="10" fill="#888">API REST</text>

  <!-- ── EMBUDO ── -->
  <rect x="240" y="75" width="380" height="340" rx="12" fill="#eef2ff" stroke="#5c6bc0" stroke-width="2" stroke-dasharray="6,3"/>
  <text x="430" y="100" text-anchor="middle" font-size="13" font-weight="bold" fill="#5c6bc0">EMBUDO DE CLASIFICACIÓN</text>

  <!-- Fase 0 -->
  <rect x="260" y="110" width="340" height="55" rx="8" fill="#fff" stroke="#9c27b0" stroke-width="1.5"/>
  <text x="280" y="132" font-size="11" font-weight="bold" fill="#9c27b0">FASE 0 · Exploración (1 vez)</text>
  <text x="280" y="150" font-size="10" fill="#555">spaCy + sentence-transformers · Genera conceptos.json</text>

  <!-- Fase 1 -->
  <rect x="260" y="175" width="340" height="55" rx="8" fill="#fff" stroke="#e65100" stroke-width="1.5"/>
  <text x="280" y="197" font-size="11" font-weight="bold" fill="#e65100">FASE 1 · ¿Es problema técnico?</text>
  <text x="280" y="215" font-size="10" fill="#555">Reglas + Ollama local (Gemma 9B) · Filtra no-técnicos</text>

  <!-- Fase 2 -->
  <rect x="260" y="240" width="340" height="55" rx="8" fill="#fff" stroke="#f57c00" stroke-width="1.5"/>
  <text x="280" y="262" font-size="11" font-weight="bold" fill="#f57c00">FASE 2 · Pre-clasificación por anclas</text>
  <text x="280" y="280" font-size="10" fill="#555">Señales fuertes: stripe · paypal · IBAN · login · error</text>

  <!-- Fase 3 -->
  <rect x="260" y="305" width="340" height="55" rx="8" fill="#fff" stroke="#1565c0" stroke-width="1.5"/>
  <text x="280" y="327" font-size="11" font-weight="bold" fill="#1565c0">FASE 3 · Clustering LLM</text>
  <text x="280" y="345" font-size="10" fill="#555">GPT-4o · Solo tickets dudosos · Cross-ref Jira</text>

  <!-- Arrows between phases -->
  <line x1="430" y1="165" x2="430" y2="175" stroke="#555" stroke-width="1.5" marker-end="url(#arrow)"/>
  <line x1="430" y1="230" x2="430" y2="240" stroke="#555" stroke-width="1.5" marker-end="url(#arrow)"/>
  <line x1="430" y1="295" x2="430" y2="305" stroke="#555" stroke-width="1.5" marker-end="url(#arrow)"/>

  <!-- Descartados branch (moved down to avoid jira_tickets.json overlap) -->
  <line x1="600" y1="215" x2="640" y2="238" stroke="#e53935" stroke-width="1.5" stroke-dasharray="4,2" marker-end="url(#arrowRed)"/>
  <rect x="640" y="225" width="130" height="34" rx="6" fill="#ffebee" stroke="#e53935" stroke-width="1"/>
  <text x="705" y="240" text-anchor="middle" font-size="10" fill="#c62828">Descartados</text>
  <text x="705" y="253" text-anchor="middle" font-size="9" fill="#c62828">(bajas voluntarias...)</text>

  <!-- Arrow Funnel → Storage -->
  <line x1="430" y1="360" x2="430" y2="400" stroke="#555" stroke-width="2" marker-end="url(#arrow)"/>

  <!-- ── STORAGE ── -->
  <rect x="310" y="400" width="240" height="65" rx="10" fill="#fff8e1" stroke="#f9a825" stroke-width="2"/>
  <text x="430" y="422" text-anchor="middle" font-size="12" font-weight="bold" fill="#f57f17">ALMACENAMIENTO</text>
  <text x="430" y="440" text-anchor="middle" font-size="10" fill="#555">PoC: JSON (tickets · clusters · conceptos)</text>
  <text x="430" y="456" text-anchor="middle" font-size="10" fill="#555">Producción: PostgreSQL (GCloud)</text>

  <!-- Arrow Storage → Streamlit -->
  <line x1="550" y1="432" x2="690" y2="432" stroke="#555" stroke-width="2" marker-end="url(#arrow)"/>

  <!-- ── STREAMLIT ── -->
  <rect x="690" y="380" width="180" height="105" rx="10" fill="#e8f5e9" stroke="#2e7d32" stroke-width="2"/>
  <text x="780" y="406" text-anchor="middle" font-size="13" font-weight="bold" fill="#2e7d32">STREAMLIT</text>
  <text x="780" y="424" text-anchor="middle" font-size="10" fill="#333">Panel interactivo</text>
  <text x="780" y="440" text-anchor="middle" font-size="10" fill="#333">· Vista clusters</text>
  <text x="780" y="456" text-anchor="middle" font-size="10" fill="#333">· Detalle drill-down</text>
  <text x="780" y="472" text-anchor="middle" font-size="10" fill="#333">· Explorar taxonomía</text>

  <!-- ── JIRA ── -->
  <rect x="690" y="90" width="180" height="55" rx="10" fill="#e3f2fd" stroke="#1565c0" stroke-width="2"/>
  <text x="780" y="113" text-anchor="middle" font-size="13" font-weight="bold" fill="#1565c0">JIRA</text>
  <text x="780" y="131" text-anchor="middle" font-size="10" fill="#333">Proyecto TEC · REST v3 /search/jql</text>

  <!-- Arrow JIRA → jira_tickets.json (fase0_jira) -->
  <line x1="780" y1="145" x2="780" y2="160" stroke="#1565c0" stroke-width="1.5" marker-end="url(#arrowBlue)"/>
  <text x="785" y="157" font-size="9" fill="#1565c0">fase0_jira.py (60d)</text>

  <!-- ── JIRA LOCAL JSON ── -->
  <rect x="690" y="162" width="180" height="50" rx="10" fill="#fff9c4" stroke="#f9a825" stroke-width="1.5"/>
  <text x="780" y="182" text-anchor="middle" font-size="11" font-weight="bold" fill="#f57f17">jira_tickets.json (local)</text>
  <text x="780" y="198" text-anchor="middle" font-size="9" fill="#555">_meta + pool 60d · sin done</text>

  <!-- Arrow jira_tickets.json → Fase 3 (matcher híbrido)
       Route outside EMBUDO: go right-to-down from JSON box to Fase 3 right edge. -->
  <line x1="690" y1="212" x2="690" y2="332" stroke="#1565c0" stroke-width="1.5" stroke-dasharray="5,3"/>
  <line x1="690" y1="332" x2="620" y2="332" stroke="#1565c0" stroke-width="1.5" stroke-dasharray="5,3" marker-end="url(#arrowBlue)"/>
  <text x="635" y="225" font-size="10" fill="#1565c0" transform="rotate(90,635,225)">matcher híbrido</text>
  <text x="648" y="225" font-size="9"  fill="#1565c0" transform="rotate(90,648,225)">(keywords + GPT-4o)</text>

  <!-- Future n8n label -->
  <rect x="690" y="260" width="180" height="55" rx="10" fill="#fce4ec" stroke="#c2185b" stroke-width="1.5" stroke-dasharray="5,3"/>
  <text x="780" y="282" text-anchor="middle" font-size="11" font-weight="bold" fill="#c2185b">n8n (futuro)</text>
  <text x="780" y="298" text-anchor="middle" font-size="10" fill="#555">Envío clusters → Jira</text>
  <text x="780" y="312" text-anchor="middle" font-size="10" fill="#555">Notificaciones</text>

  <!-- Legend -->
  <rect x="30" y="430" width="240" height="75" rx="8" fill="white" stroke="#ccc" stroke-width="1"/>
  <text x="150" y="450" text-anchor="middle" font-size="11" font-weight="bold" fill="#333">Leyenda</text>
  <rect x="45" y="458" width="12" height="12" fill="#e8f5e9" stroke="#2e7d32" stroke-width="1.5"/>
  <text x="65" y="469" font-size="10" fill="#333">Sistema activo en PoC</text>
  <rect x="45" y="476" width="12" height="12" fill="#fce4ec" stroke="#c2185b" stroke-width="1.5"/>
  <line x1="45" y1="476" x2="57" y2="488" stroke="#c2185b" stroke-width="0.5"/>
  <line x1="57" y1="476" x2="45" y2="488" stroke="#c2185b" stroke-width="0.5"/>
  <text x="65" y="487" font-size="10" fill="#333">Fase futura (post-PoC)</text>
  <line x1="45" y1="500" x2="65" y2="500" stroke="#555" stroke-width="1.5" stroke-dasharray="4,2"/>
  <text x="70" y="503" font-size="10" fill="#333">Flujo opcional / consulta</text>

  <!-- Arrow markers -->
  <defs>
    <marker id="arrow" markerWidth="8" markerHeight="8" refX="6" refY="3" orient="auto">
      <path d="M0,0 L0,6 L8,3 z" fill="#555"/>
    </marker>
    <marker id="arrowRed" markerWidth="8" markerHeight="8" refX="6" refY="3" orient="auto">
      <path d="M0,0 L0,6 L8,3 z" fill="#e53935"/>
    </marker>
    <marker id="arrowBlue" markerWidth="8" markerHeight="8" refX="6" refY="3" orient="auto">
      <path d="M0,0 L0,6 L8,3 z" fill="#1565c0"/>
    </marker>
  </defs>
</svg>
